<?xml version="1.0" encoding="UTF-8" standalone="no"?>
<svg
   xmlns:dc="http://purl.org/dc/elements/1.1/"
   xmlns:cc="http://creativecommons.org/ns#"
   xmlns:rdf="http://www.w3.org/1999/02/22-rdf-syntax-ns#"
   xmlns:svg="http://www.w3.org/2000/svg"
   xmlns="http://www.w3.org/2000/svg"
   xmlns:sodipodi="http://sodipodi.sourceforge.net/DTD/sodipodi-0.dtd"
   xmlns:inkscape="http://www.inkscape.org/namespaces/inkscape"
   version="1.1"
   id="svg845"
   width="946"
   height="1024"
   viewBox="0 0 946 1024"
   sodipodi:docname="clapclap_logo_transparent9ewfewpfhewfew0fuwe0.svg"
   inkscape:version="1.0.1 (3bc2e813f5, 2020-09-07)">
  <metadata
     id="metadata851">
    <rdf:RDF>
      <cc:Work
         rdf:about="">
        <dc:format>image/svg+xml</dc:format>
        <dc:type
           rdf:resource="http://purl.org/dc/dcmitype/StillImage" />
        <dc:title></dc:title>
      </cc:Work>
    </rdf:RDF>
  </metadata>
  <defs
     id="defs849" />
  <sodipodi:namedview
     pagecolor="#ffffff"
     bordercolor="#666666"
     borderopacity="1"
     objecttolerance="10"
     gridtolerance="10"
     guidetolerance="10"
     inkscape:pageopacity="0"
     inkscape:pageshadow="2"
     inkscape:window-width="1920"
     inkscape:window-height="1001"
     id="namedview847"
     showgrid="false"
     fit-margin-top="0"
     fit-margin-left="0"
     fit-margin-right="0"
     fit-margin-bottom="0"
     inkscape:zoom="0.5"
     inkscape:cx="-20.959248"
     inkscape:cy="533.93942"
     inkscape:window-x="-9"
     inkscape:window-y="-9"
     inkscape:window-maximized="1"
     inkscape:current-layer="g853" />
  <g
     inkscape:groupmode="layer"
     inkscape:label="Image"
     id="g853"
     transform="translate(1475.2441,-138.87305)">
    <path
       id="path1807"
       style="fill:#00a5ff;fill-opacity:1;stroke:#00a5ff;stroke-width:0;stroke-linecap:square;stroke-linejoin:bevel;stroke-miterlimit:4;stroke-dasharray:none;stroke-opacity:1;paint-order:markers fill stroke"
       d="m 1566,-50 a 512,512 0 0 0 -512,512 512,512 0 0 0 512,512 512,512 0 0 0 262,-72.11523 V 764.25 A 400.00003,400.00003 0 0 1 1566,862 400.00003,400.00003 0 0 1 1166,462 400.00003,400.00003 0 0 1 1566,62 400.00003,400.00003 0 0 1 1828,159.74805 V 22.115234 A 512,512 0 0 0 1566,-50 Z"
       transform="translate(-2529.2441,188.87305)" />
    <path
       id="path1824"
       style="fill:#ff00bb;fill-opacity:1;stroke:#00a5ff;stroke-width:0;stroke-linecap:square;stroke-linejoin:bevel;stroke-miterlimit:4;stroke-dasharray:none;stroke-opacity:1;paint-order:markers fill stroke"
       d="M 1738,-50 A 512,512 0 0 0 1226,462 512,512 0 0 0 1355.0762,801.86914 400.00003,400.00003 0 0 0 1566,862 400.00003,400.00003 0 0 0 1651.998,852.64453 400.00003,400.00003 0 0 1 1338,462 400.00003,400.00003 0 0 1 1738,62 400.00003,400.00003 0 0 1 2000,159.74805 V 22.115234 A 512,512 0 0 0 1738,-50 Z m 262,814.25 a 400.00003,400.00003 0 0 1 -172,87.49414 v 50.14063 a 512,512 0 0 1 -176,64.83984 512,512 0 0 0 86,7.27539 512,512 0 0 0 262,-72.11523 z"
       transform="translate(-2529.2441,188.87305)" />
  </g>
</svg>
